<svg viewBox="0 0 960 1050" xmlns="http://www.w3.org/2000/svg"><style>path{fill:#14110F}@media (prefers-color-scheme:dark){path{fill:#F3F0EB}}</style>
<g transform="translate(0.000000,1050.000000) scale(0.100000,-0.100000)"
fill="#14110F" stroke="none">
<path d="M4544 8019 c-231 -38 -391 -217 -804 -894 -131 -215 -297 -487 -370
-605 -46 -74 -109 -178 -140 -230 -32 -52 -95 -156 -140 -230 -109 -177 -277
-453 -372 -610 -42 -69 -113 -186 -158 -260 -46 -74 -118 -193 -160 -265 -43
-71 -149 -249 -237 -395 -88 -146 -207 -344 -265 -440 -109 -182 -137 -229
-223 -370 -28 -47 -95 -157 -147 -245 -53 -88 -147 -245 -210 -350 -201 -333
-329 -547 -383 -640 -28 -50 -68 -116 -88 -147 -122 -191 -118 -198 112 -198
191 0 172 -11 297 173 54 78 127 185 164 237 37 52 129 185 205 295 76 110
191 274 255 365 64 91 145 207 181 257 119 172 382 548 429 613 25 36 78 110
117 165 129 184 542 761 579 810 13 17 91 122 175 235 645 867 916 1080 1198
939 278 -139 450 -632 820 -2344 28 -132 58 -269 67 -305 28 -117 43 -183 79
-339 173 -750 366 -1066 679 -1112 374 -56 659 263 1113 1246 90 195 307 671
358 785 23 52 70 155 103 228 34 72 90 192 123 265 698 1509 1027 1573 1534
297 90 -227 144 -353 155 -364 17 -17 14 1703 -4 1723 -8 9 -69 147 -136 306
-276 658 -415 809 -700 764 -264 -42 -425 -278 -855 -1259 -42 -96 -98 -222
-125 -280 -27 -58 -75 -166 -108 -240 -63 -143 -267 -573 -300 -631 -10 -19
-52 -95 -93 -169 -294 -542 -503 -745 -763 -745 -355 0 -543 362 -921 1770
-22 84 -120 465 -185 720 -258 1019 -389 1328 -616 1443 -36 18 -149 44 -179
41 -5 -1 -33 -5 -61 -10z"/>
</g>
</svg>
